<svg width="100%" viewBox="0 0 680 680" xmlns="http://www.w3.org/2000/svg">
  <defs>
    <clipPath id="starClip">
      <polygon points="340,60 405,250 610,250 450,370 510,560 340,440 170,560 230,370 70,250 275,250"/>
    </clipPath>
    <linearGradient id="fireBase" x1="0" y1="1" x2="0" y2="0">
      <stop offset="0%" stop-color="#ff2200"/>
      <stop offset="40%" stop-color="#ff6600"/>
      <stop offset="75%" stop-color="#ffaa00"/>
      <stop offset="100%" stop-color="#ffee44"/>
    </linearGradient>
    <linearGradient id="flameCore" x1="0" y1="1" x2="0" y2="0">
      <stop offset="0%" stop-color="#ff4400"/>
      <stop offset="50%" stop-color="#ffcc00"/>
      <stop offset="100%" stop-color="#fff5aa"/>
    </linearGradient>
  </defs>

  <polygon points="340,60 405,250 610,250 450,370 510,560 340,440 170,560 230,370 70,250 275,250" fill="none" stroke="#cc2200" stroke-width="3" style="fill:none;stroke:rgb(204, 34, 0);color:rgb(255, 255, 255);stroke-width:3px;stroke-linecap:butt;stroke-linejoin:miter;opacity:1;font-family:&quot;Anthropic Sans&quot;, -apple-system, BlinkMacSystemFont, &quot;Segoe UI&quot;, sans-serif;font-size:16px;font-weight:400;text-anchor:start;dominant-baseline:auto"/>

  <g clip-path="url(#starClip)" style="fill:rgb(0, 0, 0);stroke:none;color:rgb(255, 255, 255);stroke-width:1px;stroke-linecap:butt;stroke-linejoin:miter;opacity:1;font-family:&quot;Anthropic Sans&quot;, -apple-system, BlinkMacSystemFont, &quot;Segoe UI&quot;, sans-serif;font-size:16px;font-weight:400;text-anchor:start;dominant-baseline:auto">
    <rect x="60" y="50" width="560" height="560" fill="url(#fireBase)" style="stroke:none;color:rgb(255, 255, 255);stroke-width:1px;stroke-linecap:butt;stroke-linejoin:miter;opacity:1;font-family:&quot;Anthropic Sans&quot;, -apple-system, BlinkMacSystemFont, &quot;Segoe UI&quot;, sans-serif;font-size:16px;font-weight:400;text-anchor:start;dominant-baseline:auto"/>

    <ellipse cx="340" cy="560" rx="200" ry="60" fill="#ff1100" style="fill:rgb(255, 17, 0);stroke:none;color:rgb(255, 255, 255);stroke-width:1px;stroke-linecap:butt;stroke-linejoin:miter;opacity:1;font-family:&quot;Anthropic Sans&quot;, -apple-system, BlinkMacSystemFont, &quot;Segoe UI&quot;, sans-serif;font-size:16px;font-weight:400;text-anchor:start;dominant-baseline:auto"/>
    <path d="M200,560 Q210,460 260,400 Q230,480 290,430 Q270,360 320,290 Q310,390 360,340 Q340,250 400,200 Q390,300 440,270 Q420,360 460,320 Q450,410 490,380 Q470,450 480,560 Z" fill="url(#flameCore)" opacity="0.9" style="stroke:none;color:rgb(255, 255, 255);stroke-width:1px;stroke-linecap:butt;stroke-linejoin:miter;opacity:0.9;font-family:&quot;Anthropic Sans&quot;, -apple-system, BlinkMacSystemFont, &quot;Segoe UI&quot;, sans-serif;font-size:16px;font-weight:400;text-anchor:start;dominant-baseline:auto"/>
    <path d="M240,560 Q250,490 290,450 Q270,510 310,470 Q300,400 340,350 Q330,430 370,400 Q355,320 390,280 Q385,370 420,350 Q405,430 440,410 Q430,490 450,560 Z" fill="#fff0aa" opacity="0.7" style="fill:rgb(255, 240, 170);stroke:none;color:rgb(255, 255, 255);stroke-width:1px;stroke-linecap:butt;stroke-linejoin:miter;opacity:0.7;font-family:&quot;Anthropic Sans&quot;, -apple-system, BlinkMacSystemFont, &quot;Segoe UI&quot;, sans-serif;font-size:16px;font-weight:400;text-anchor:start;dominant-baseline:auto"/>

    <path d="M150,560 Q160,480 200,440 Q180,500 220,460 Q210,400 250,370 Q240,440 270,420 Q260,360 290,330 Q285,400 310,380 Q300,450 330,560 Z" fill="url(#flameCore)" opacity="0.75" style="stroke:none;color:rgb(255, 255, 255);stroke-width:1px;stroke-linecap:butt;stroke-linejoin:miter;opacity:0.75;font-family:&quot;Anthropic Sans&quot;, -apple-system, BlinkMacSystemFont, &quot;Segoe UI&quot;, sans-serif;font-size:16px;font-weight:400;text-anchor:start;dominant-baseline:auto"/>
    <path d="M430,560 Q440,480 470,450 Q455,510 490,470 Q480,410 510,380 Q500,450 530,430 Q520,490 540,560 Z" fill="url(#flameCore)" opacity="0.7" style="stroke:none;color:rgb(255, 255, 255);stroke-width:1px;stroke-linecap:butt;stroke-linejoin:miter;opacity:0.7;font-family:&quot;Anthropic Sans&quot;, -apple-system, BlinkMacSystemFont, &quot;Segoe UI&quot;, sans-serif;font-size:16px;font-weight:400;text-anchor:start;dominant-baseline:auto"/>

    <path d="M290,560 Q295,510 310,490 Q305,530 320,510 Q315,470 330,450 Q328,490 342,475 Q338,440 350,425 Q348,465 360,450 Q355,500 370,560 Z" fill="#fffacc" opacity="0.85" style="fill:rgb(255, 250, 204);stroke:none;color:rgb(255, 255, 255);stroke-width:1px;stroke-linecap:butt;stroke-linejoin:miter;opacity:0.85;font-family:&quot;Anthropic Sans&quot;, -apple-system, BlinkMacSystemFont, &quot;Segoe UI&quot;, sans-serif;font-size:16px;font-weight:400;text-anchor:start;dominant-baseline:auto"/>

    <ellipse cx="260" cy="540" rx="30" ry="12" fill="#ff6600" opacity="0.5" style="fill:rgb(255, 102, 0);stroke:none;color:rgb(255, 255, 255);stroke-width:1px;stroke-linecap:butt;stroke-linejoin:miter;opacity:0.5;font-family:&quot;Anthropic Sans&quot;, -apple-system, BlinkMacSystemFont, &quot;Segoe UI&quot;, sans-serif;font-size:16px;font-weight:400;text-anchor:start;dominant-baseline:auto"/>
    <ellipse cx="420" cy="530" rx="25" ry="10" fill="#ff8800" opacity="0.4" style="fill:rgb(255, 136, 0);stroke:none;color:rgb(255, 255, 255);stroke-width:1px;stroke-linecap:butt;stroke-linejoin:miter;opacity:0.4;font-family:&quot;Anthropic Sans&quot;, -apple-system, BlinkMacSystemFont, &quot;Segoe UI&quot;, sans-serif;font-size:16px;font-weight:400;text-anchor:start;dominant-baseline:auto"/>
    <ellipse cx="340" cy="545" rx="20" ry="8" fill="#ffcc44" opacity="0.6" style="fill:rgb(255, 204, 68);stroke:none;color:rgb(255, 255, 255);stroke-width:1px;stroke-linecap:butt;stroke-linejoin:miter;opacity:0.6;font-family:&quot;Anthropic Sans&quot;, -apple-system, BlinkMacSystemFont, &quot;Segoe UI&quot;, sans-serif;font-size:16px;font-weight:400;text-anchor:start;dominant-baseline:auto"/>
  </g>

  <polygon points="340,60 405,250 610,250 450,370 510,560 340,440 170,560 230,370 70,250 275,250" fill="none" stroke="#991100" stroke-width="4" style="fill:none;stroke:rgb(153, 17, 0);color:rgb(255, 255, 255);stroke-width:4px;stroke-linecap:butt;stroke-linejoin:miter;opacity:1;font-family:&quot;Anthropic Sans&quot;, -apple-system, BlinkMacSystemFont, &quot;Segoe UI&quot;, sans-serif;font-size:16px;font-weight:400;text-anchor:start;dominant-baseline:auto"/>
</svg>